<?xml version="1.0" encoding="UTF-8"?> <svg xmlns="http://www.w3.org/2000/svg" viewBox="0 0 389.77 102.92"><defs><style>.cls-1{fill:#fff;}.cls-2{fill:#83bb9b;}</style></defs><g id="Layer_2" data-name="Layer 2"><g id="Capa_1" data-name="Capa 1"><path class="cls-1" d="M214.35,71.43h-16L177.56,47.59H164.62V71.43H151.17V0c11.31,0,22.62.1,33.93.1,16.82.1,25.68,11.31,25.68,23.64,0,9.79-4.48,19.67-18,22.42l21.61,24.36Zm-49.73-58.8V35.46H185.1c8.56,0,12.23-5.7,12.23-11.41s-3.77-11.42-12.23-11.42Z"></path><polygon class="cls-1" points="244.72 0.1 244.72 59 281.41 59 281.41 71.43 231.27 71.43 231.27 0.1 244.72 0.1"></polygon><rect class="cls-1" x="298.44" y="0.1" width="13.35" height="71.33"></rect><polygon class="cls-1" points="376.31 0.1 389.76 0.1 389.76 71.43 374.56 71.43 343.91 22.96 343.91 71.43 330.46 71.43 330.46 0.1 345.66 0.1 376.31 48.57 376.31 0.1"></polygon><path class="cls-2" d="M58.39,20.53a14.84,14.84,0,0,1-9.27,14c8.35,2.54,11.41,10.69,11.41,15.18,0,15.9-11.92,21.7-26.7,21.7H0V.1H33.83C47.9.1,58.39,6.16,58.39,20.53M13.25,28.74H33.83c8.46,0,11.21-3.16,11.21-8.21s-2.65-8.2-11.21-8.2H13.25Zm0,30.16H33.83c5.5,0,13.35-2.45,13.35-9.17,0-6.42-7.85-9.17-13.35-9.17H13.25Z"></path><rect class="cls-2" x="75.7" y="29.65" width="56.79" height="12.11"></rect><rect class="cls-2" x="75.7" y="0.1" width="56.79" height="12.11"></rect><rect class="cls-2" x="75.7" y="59.32" width="56.79" height="12.11"></rect><polygon class="cls-2" points="0 90.26 2.2 90.26 2.2 95.18 7.97 95.18 7.97 90.26 10.16 90.26 10.16 102.6 7.97 102.6 7.97 97.16 2.2 97.16 2.2 102.6 0 102.6 0 90.26"></polygon><path class="cls-2" d="M37.27,90a6.13,6.13,0,0,1,6.57,6.46c0,3.86-2.72,6.44-6.57,6.51a6.49,6.49,0,1,1,0-13m0,11c2.56,0,4.25-2,4.25-4.59a4.25,4.25,0,1,0-8.49,0c0,2.64,1.69,4.59,4.24,4.59"></path><path class="cls-2" d="M74.31,98.07a5,5,0,0,1-9.93,0V90.26h2.19V98a2.78,2.78,0,1,0,5.55,0V90.26h2.19Z"></path><path class="cls-2" d="M101.56,92.91a2.61,2.61,0,0,0-2.16-1c-1,0-2,.46-2,1.59,0,2.47,5.86,1.06,5.86,5.46,0,2.65-2.09,3.94-4.52,3.94a5.09,5.09,0,0,1-4-1.68l1.66-1.6a2.9,2.9,0,0,0,2.44,1.29c1,0,2.16-.56,2.16-1.69,0-2.7-5.86-1.15-5.86-5.56,0-2.55,2.27-3.73,4.55-3.73a5.05,5.05,0,0,1,3.54,1.27Z"></path><polygon class="cls-2" points="124.01 90.26 132.18 90.26 132.18 92.25 126.2 92.25 126.2 95.28 131.87 95.28 131.87 97.27 126.2 97.27 126.2 100.61 132.5 100.61 132.5 102.6 124.01 102.6 124.01 90.26"></polygon></g></g></svg> 