<svg id="Capa_1" data-name="Capa 1" xmlns="http://www.w3.org/2000/svg" width="7.86cm" height="1.44cm" viewBox="0 0 222.75 40.83">
  <defs>
    <style>
      .cls-1 {
        fill: #424b54;
      }
    </style>
  </defs>
  <g>
    <path class="cls-1" d="M122.5,40.77h-9.14L101.48,27.14h-7.4V40.77H86.39V-.06c6.47,0,12.93.06,19.4.06,9.61.06,14.67,6.46,14.67,13.51,0,5.59-2.56,11.24-10.31,12.81L122.5,40.24ZM94.08,7.16V20.21h11.71c4.89,0,7-3.26,7-6.52s-2.16-6.53-7-6.53Z" transform="translate(0 0.06)"/>
    <path class="cls-1" d="M139.86,0V33.66h21v7.11H132.17V0Z" transform="translate(0 0.06)"/>
    <path class="cls-1" d="M170.56,40.77V0h7.63V40.77Z" transform="translate(0 0.06)"/>
    <path class="cls-1" d="M215.07,0h7.68V40.77h-8.68l-17.52-27.7v27.7h-7.69V0h8.69l17.52,27.7Z" transform="translate(0 0.06)"/>
    <path class="cls-1" d="M33.37,11.68a8.48,8.48,0,0,1-5.3,8,9.45,9.45,0,0,1,6.52,8.67c0,9.09-6.81,12.41-15.25,12.41H0V0H19.34C27.37,0,33.37,3.47,33.37,11.68ZM7.57,16.37H19.34c4.83,0,6.4-1.81,6.4-4.69S24.23,7,19.34,7H7.57Zm0,17.23H19.34c3.14,0,7.62-1.39,7.62-5.24,0-3.67-4.48-5.24-7.62-5.24H7.57Z" transform="translate(0 0.06)"/>
    <g>
      <rect class="cls-1" x="43.26" y="16.95" width="32.46" height="6.92"/>
      <rect class="cls-1" x="43.26" y="0.06" width="32.46" height="6.92"/>
      <rect class="cls-1" x="43.26" y="33.9" width="32.46" height="6.92"/>
    </g>
  </g>
</svg>
